<mxfile host="app.diagrams.net" modified="2024-02-20T14:17:08.152Z" agent="Mozilla/5.0 (Windows NT 10.0; Win64; x64) AppleWebKit/537.36 (KHTML, like Gecko) Chrome/116.0.0.0 Safari/537.36 OPR/102.0.0.0" version="23.1.5" etag="jYdvSGDfojjFxPE7pBwr" type="github">
  <diagram name="PÃ¡gina-1" id="9cG0KGkTR446BWwWGHcn">
    <mxGraphModel>
      <root>
        <mxCell id="0" />
        <mxCell id="1" parent="0" />
      </root>
    </mxGraphModel>
  </diagram>
</mxfile>
